<svg width="28" height="28" viewBox="0 0 28 28" fill="none" xmlns="http://www.w3.org/2000/svg">
<path d="M6.70825 15.4584C6.70825 15.9416 7.1 16.3334 7.58325 16.3334C8.0665 16.3334 8.45825 15.9416 8.45825 15.4584V13.7084H10.2083C10.6915 13.7084 11.0833 13.3166 11.0833 12.8334C11.0833 12.3501 10.6915 11.9584 10.2083 11.9584H8.45825V10.2084C8.45825 9.72512 8.0665 9.33337 7.58325 9.33337C7.1 9.33337 6.70825 9.72512 6.70825 10.2084V11.9584H4.95825C4.475 11.9584 4.08325 12.3501 4.08325 12.8334C4.08325 13.3166 4.475 13.7084 4.95825 13.7084H6.70825V15.4584Z" fill="white"/>
<path fill-rule="evenodd" clip-rule="evenodd" d="M12.8333 9.91671C12.8333 12.1719 14.6614 14 16.9166 14C19.1717 14 20.9999 12.1719 20.9999 9.91671C20.9999 7.66154 19.1717 5.83337 16.9166 5.83337C14.6614 5.83337 12.8333 7.66154 12.8333 9.91671ZM14.5833 9.91671C14.5833 8.62804 15.6279 7.58337 16.9166 7.58337C18.2052 7.58337 19.2499 8.62804 19.2499 9.91671C19.2499 11.2054 18.2052 12.25 16.9166 12.25C15.6279 12.25 14.5833 11.2054 14.5833 9.91671Z" fill="white"/>
<path d="M10.4999 20.4167C10.4999 17.5172 12.8504 15.1667 15.7499 15.1667H18.0833C20.9827 15.1667 23.3333 17.5172 23.3333 20.4167V20.7084C23.3333 21.1916 22.9415 21.5834 22.4583 21.5834C21.975 21.5834 21.5833 21.1916 21.5833 20.7084V20.4167C21.5833 18.4837 20.0162 16.9167 18.0833 16.9167H15.7499C13.8169 16.9167 12.2499 18.4837 12.2499 20.4167V20.7084C12.2499 21.1916 11.8582 21.5834 11.3749 21.5834C10.8917 21.5834 10.4999 21.1916 10.4999 20.7084V20.4167Z" fill="white"/>
</svg>
