<svg width="28" height="28" viewBox="0 0 28 28" fill="none" xmlns="http://www.w3.org/2000/svg">
<g transform="scale(-1,1) translate(-28,0)">
<path d="M24.1328 13.2897C24.6224 13.7606 24.6224 14.5239 24.1328 14.9948C24.0949 15.0313 24.055 15.065 24.0137 15.0959C23.9837 15.1322 23.9513 15.1673 23.9165 15.2008L16.4361 22.3967C15.9466 22.8677 15.1529 22.8678 14.6632 22.397C14.1735 21.9262 14.1734 21.1628 14.6629 20.6919L21.4725 14.1413L14.3672 7.30818C13.8776 6.83735 13.8776 6.07397 14.3672 5.60313C14.8568 5.13229 15.6506 5.13229 16.1402 5.60313L24.1328 13.2897Z" fill="white"/>
<path d="M2.33337 14C2.33337 13.3557 2.85571 12.8333 3.50004 12.8333H21C21.6444 12.8333 22.1667 13.3557 22.1667 14C22.1667 14.6443 21.6444 15.1667 21 15.1667H3.50004C2.85571 15.1667 2.33337 14.6443 2.33337 14Z" fill="white"/>

</g>
</svg>
