<svg width="28" height="28" viewBox="0 0 28 28" fill="none" xmlns="http://www.w3.org/2000/svg">
<path fill-rule="evenodd" clip-rule="evenodd" d="M21.3846 19.1947L22.1656 22.1278L19.2865 21.3203L18.5523 21.7524C17.2095 22.5427 15.6596 23 14.0001 23C9.0294 23 5 18.9706 5 13.9997C5 9.02939 9.02933 5 14.0001 5C18.9709 5 23.0001 9.02934 23.0001 13.9997C23.0001 15.6303 22.5602 17.1549 21.7969 18.4794L21.3846 19.1947ZM19.5667 23.4761C17.9321 24.4381 16.0341 25 14.0001 25C7.92481 25 3 20.0752 3 13.9997C3 7.92476 7.92481 3 14.0001 3C20.0755 3 25.0001 7.92476 25.0001 13.9997C25.0001 15.9965 24.4601 17.8637 23.5297 19.478L24.5491 23.3066C24.7483 24.0548 24.0582 24.7359 23.3127 24.5268L19.5667 23.4761Z" fill="white"/>
</svg>
