<svg width="28" height="28" viewBox="0 0 28 28" fill="none" xmlns="http://www.w3.org/2000/svg">
<path fill-rule="evenodd" clip-rule="evenodd" d="M4 5C4 4.44772 4.44772 4 5 4H23C23.5523 4 24 4.44772 24 5V23C24 23.5523 23.5523 24 23 24H5C4.44772 24 4 23.5523 4 23V5ZM6 9.99406V6H10.0094V9.99406H6ZM6 11.9941V16.0001H10.0094V11.9941H6ZM6 18.0001V22H10.0094V18.0001H6ZM12.0094 22H16.0153V18.0001H12.0094V22ZM18.0153 22H22V18.0001H18.0153V22ZM22 16.0001V11.9941H18.0153V16.0001H22ZM22 9.99406V6H18.0153V9.99406H22ZM16.0153 6H12.0094V9.99406H16.0153V6ZM12.0094 16.0001V11.9941H16.0153V16.0001H12.0094Z" fill="white"/>
</svg>
