<svg width="28" height="28" viewBox="0 0 28 28" fill="none" xmlns="http://www.w3.org/2000/svg">
<path d="M9.80952 24.9633H5C4.44772 24.9633 4 24.5156 4 23.9633V15.1565C4 14.9018 4.09721 14.6566 4.2718 14.4711L13.3988 4.77371C13.7936 4.3542 14.4603 4.3542 14.8552 4.77371L23.8076 14.2856C23.9822 14.4711 24.0794 14.7162 24.0794 14.971V23.9633C24.0794 24.5156 23.6317 24.9633 23.0794 24.9633H18.0952C17.543 24.9633 17.0952 24.5156 17.0952 23.9633V19.0268C17.0952 19.0268 17.0952 16.244 14.127 16.244C10.6349 16.244 10.8095 19.0268 10.8095 19.0268V23.9633C10.8095 24.5156 10.3618 24.9633 9.80952 24.9633Z" fill="white"/>
</svg>
