<svg width="28" height="28" viewBox="0 0 28 28" fill="none" xmlns="http://www.w3.org/2000/svg">
<path fill-rule="evenodd" clip-rule="evenodd" d="M12.6706 4.08835C13.4603 3.24932 14.7937 3.24932 15.5834 4.08835L24.5358 13.6003C24.8849 13.9712 25.0794 14.4615 25.0794 14.971V23.9633C25.0794 25.0679 24.1839 25.9633 23.0794 25.9633H18.0952C16.9907 25.9633 16.0952 25.0679 16.0952 23.9633V19.0339L16.0951 19.0311C16.0949 19.0233 16.0941 19.0069 16.0923 18.9832C16.0887 18.9354 16.0809 18.8602 16.0643 18.767C16.0304 18.5762 15.9643 18.3356 15.8419 18.106C15.7221 17.8815 15.5547 17.6779 15.313 17.5268C15.0746 17.3778 14.7068 17.244 14.127 17.244C12.7008 17.244 12.2258 17.7795 12.0295 18.1271C11.9096 18.3394 11.852 18.561 11.8263 18.7368C11.8137 18.8228 11.8096 18.8916 11.8085 18.9341C11.8079 18.9545 11.8081 18.9683 11.8082 18.9741L11.8095 18.9954V23.9633C11.8095 25.0679 10.9141 25.9633 9.80952 25.9633H5C3.89543 25.9633 3 25.0679 3 23.9633V15.1565C3 14.647 3.19443 14.1568 3.5436 13.7858L12.6706 4.08835ZM17.0952 19.0268H18.0952V23.9633H23.0794V14.971L14.127 5.45908L5 15.1565L5 23.9633L9.80952 23.9633V19.0482C9.80919 19.0388 9.80888 19.0282 9.80863 19.0164C9.8079 18.9812 9.80772 18.9354 9.8092 18.8803C9.81215 18.7706 9.82174 18.6221 9.84735 18.4471C9.898 18.1012 10.015 17.6271 10.288 17.1437C10.8774 16.1 12.0611 15.244 14.127 15.244C15.0313 15.244 15.7766 15.4581 16.373 15.8309C16.9662 16.2016 17.3552 16.6936 17.6066 17.1648C17.8551 17.6309 17.9746 18.086 18.0334 18.4169C18.0632 18.5847 18.0786 18.7268 18.0866 18.8312C18.0905 18.8836 18.0927 18.927 18.0939 18.96C18.0945 18.9765 18.0948 18.9904 18.095 19.0016L18.0952 19.0163L18.0952 19.0221L18.0952 19.0246L18.0952 19.0257C18.0952 19.0257 18.0952 19.0268 17.0952 19.0268Z" fill="white"/>
</svg>
