<svg width="105" height="30" viewBox="0 0 105 30" fill="none" xmlns="http://www.w3.org/2000/svg">
<path d="M0.14622 6.78321C0.892404 3.56953 3.25507 1.0111 5.40421 0.10435C6.30312 -0.274969 8.20784 0.450741 8.22127 1.14246C8.26762 3.53564 8.25719 7.2762 8.25146 9.33293C8.25044 9.69984 8.24958 10.0132 8.2492 10.2557C8.24893 10.4188 8.24872 10.5935 8.2485 10.7776C8.24631 12.5646 8.24301 15.2451 8.18292 16.9947C8.12795 18.5957 7.82237 20.0699 6.94927 21.2974C6.22111 22.321 4.96325 22.9561 4.66862 22.6891C4.48767 22.5251 4.59508 22.1816 4.75019 21.6855C4.82097 21.4591 4.90167 21.201 4.96944 20.9137C5.18312 20.0087 5.30206 19.0929 5.30206 16.1926C5.30206 14.9541 5.32301 11.0022 5.3407 7.66546C5.35363 5.22771 5.36481 3.11834 5.36481 2.63538L5.36487 2.55228C5.36544 1.96621 5.36575 1.66075 5.08432 1.89827C3.49933 3.23579 2.24004 6.28409 2.52849 9.01217C2.64931 10.1554 3.02237 10.7455 3.27904 11.1516C3.4966 11.4957 3.63054 11.7076 3.45637 12.0119C3.13382 12.5756 -0.79881 10.854 0.14622 6.78321Z" fill="white"/>
<path fill-rule="evenodd" clip-rule="evenodd" d="M103.956 16.2087C104.074 15.6641 104.216 15.3403 104.528 15.3403C104.93 15.3403 105.063 15.851 104.973 16.5122C104.597 19.2603 103.483 20.3046 102.119 20.3046C101.481 20.3046 99.6483 19.9913 99.0149 17.1917C98.5476 15.1251 98.6627 11.3464 98.7139 10.1912C98.7153 10.1598 98.6736 9.99874 98.5838 10.2031L98.5643 10.2476C98.306 10.8353 97.6553 12.316 97.2609 13.9504C96.6411 16.5192 96.5876 18.3069 96.6181 18.5961C96.6809 19.1896 95.9798 19.2829 95.6445 19.2829C95.1175 19.2829 94.4702 19.2387 93.9462 18.3062C93.7626 17.98 93.5236 16.9496 93.3447 15.2064C93.1106 12.9281 93.0741 11.2098 93.06 10.5463L93.0584 10.4712C93.0521 10.1743 92.8764 10.2205 92.7207 10.5011L92.6972 10.5433C92.4104 11.0584 91.8389 12.0846 91.2274 14.6206C90.9382 15.8205 90.8956 17.3406 90.8619 18.5437C90.852 18.8985 90.8428 19.2258 90.8283 19.5091C90.8041 19.9829 90.627 20.1665 90.3999 20.2128C90.0721 20.2795 89.1859 20.4329 88.317 20.1084C88.1207 20.0351 87.8508 19.8833 87.8045 19.7622C87.7285 19.5645 87.6804 18.937 87.6498 18.1696C86.9185 19.9125 86.0171 20.3046 85.0673 20.3046C84.1555 20.3046 82.5636 19.6677 82.2358 17.6061C82.2358 17.6061 82.0401 18.0169 81.6953 18.4922C80.1676 20.5987 77.1579 21.1366 75.601 18.6522C75.5252 18.5312 75.4557 18.4001 75.3892 18.2647C74.8378 19.4796 73.8088 20.2977 72.7332 20.2977C71.8143 20.2977 70.2645 19.6704 69.577 17.7207C68.587 14.9135 69.642 10.7196 69.7356 10.3477L69.7391 10.3339C69.7937 10.1159 69.7088 10.0552 69.4135 10.0746C68.4902 10.1355 67.6251 10.128 67.6251 10.128C67.1152 11.7476 66.1194 13.8288 65.1903 15.3785C64.3377 16.8004 63.4118 18.0155 62.5899 18.9767C62.6004 19.6997 62.6124 20.3948 62.6234 21.0299C62.6315 21.4947 62.639 21.9273 62.6449 22.3155C62.6799 24.6096 62.2027 26.9324 61.4736 28.0116C60.6453 29.2377 59.2955 30.1138 57.7222 29.988C56.2379 29.8694 54.2791 28.9648 54.4456 26.5308C54.5762 24.6245 56.35 22.9872 58.6865 20.8305L58.6962 20.8215C59.2275 20.3309 60.093 19.5314 60.093 19.5314L60.0484 18.2229C59.9942 18.3035 59.9321 18.3932 59.8605 18.4922C58.3434 20.6019 55.3231 21.1366 53.7662 18.6522C53.663 18.4875 53.5684 18.3138 53.4818 18.1319C52.7427 19.8078 51.6881 20.2941 50.6667 20.2941C49.7548 20.2941 48.162 19.5981 47.9407 17.6061C47.9407 17.6061 47.8693 17.8403 47.4002 18.4922C45.8831 20.6019 42.8628 21.1366 41.3059 18.6522C40.9809 18.1335 40.7292 17.5203 40.5592 16.815C39.9669 18.545 38.6126 20.3035 37.2617 20.3035C35.2413 20.3035 34.0783 18.5094 33.8051 15.3385C32.2786 19.01 30.0858 20.4333 27.3484 20.3411C26.6459 20.3174 25.5443 20.1092 25.0317 19.8793C24.4365 19.6123 23.8622 19.3071 24.0199 18.7296C24.182 18.1362 24.4658 17.6568 24.9621 17.28C25.1531 17.1349 25.4718 17.1764 25.6805 17.3147C25.849 17.4264 25.9755 17.5229 26.0961 17.615C26.2537 17.7352 26.4015 17.848 26.6202 17.9774C27.9458 18.7606 28.6906 17.9548 28.8883 17.1728C29.1469 16.15 28.7572 15.0718 27.5702 13.9372C27.25 13.6312 26.9297 13.3374 26.6231 13.0562C26.4405 12.8888 26.2628 12.7258 26.0929 12.5673C25.4393 13.6768 24.5296 15.2162 23.5927 16.7862C22.0899 19.3055 20.688 20.3007 19.6935 20.3007C18.3935 20.3007 17.4839 19.3672 17.6733 14.3312C17.7107 13.3373 17.7576 12.2505 17.7979 11.3155C17.834 10.4802 17.8648 9.76605 17.8789 9.34779C17.8856 9.14735 17.746 9.15465 17.6237 9.27712C16.9241 9.97773 15.4367 11.9506 14.2957 15.9939C13.6718 18.2044 13.5765 19.0379 13.5084 19.634C13.4965 19.7383 13.4854 19.8353 13.4724 19.9311C13.3999 20.4684 12.0041 20.2879 11.7492 20.235C11.4754 20.178 11.3093 20.0401 11.1656 19.8592C11.0219 19.678 10.9058 19.3735 10.8341 18.9991C10.7621 18.6253 10.7432 17.7705 10.7432 17.0375L10.8045 7.39296C10.8045 7.07966 10.9721 6.92249 11.3075 6.92249C12.0117 6.92249 12.8036 7.25411 13.1002 7.41627C13.2752 7.51186 13.3517 7.65158 13.3517 7.79613L13.314 13.9607C13.314 13.9607 13.7497 12.7834 13.9715 12.1373C15.7312 7.01095 17.5935 6.92249 18.2389 6.92249C18.6701 6.92249 19.4148 7.34773 19.7636 7.56402C20.3379 7.92002 20.6804 8.31305 20.6544 9.00299C20.6355 9.50686 20.6153 10.0066 20.5957 10.4936C20.5342 12.0232 20.4777 13.4279 20.4777 14.4444V14.5052C20.4776 16.0421 20.4775 17.6596 21.0119 17.6596C21.6514 17.6596 22.4859 16.2025 23.5754 14.3002C23.6402 14.1871 23.7059 14.0725 23.7725 13.9565C24.2 13.2117 24.7047 12.2514 25.0722 11.5381C25.0225 11.4804 24.9745 11.4231 24.9301 11.3671C24.3225 10.5995 24.157 9.86079 24.4672 8.86485C24.8675 7.5795 26.2097 6.37548 27.8375 6.75249C28.8226 6.98051 28.8053 8.01436 28.4039 8.91808C27.8375 10.1938 27.1987 10.8277 27.1987 10.8277C28.3016 11.6495 29.2873 12.3995 29.7865 12.7955C31.1418 13.8705 31.8942 15.1404 31.5258 16.8314C31.5258 16.8314 33.2409 15.4506 33.7278 12.8947C33.7273 12.804 33.7268 12.7116 33.7265 12.6172C33.7263 12.562 33.7262 12.5061 33.7262 12.4495C33.7262 11.005 33.7657 6.32672 33.7657 6.32672C33.4143 6.31611 32.992 6.30562 32.5625 6.29495C31.9106 6.27875 31.2422 6.26215 30.7805 6.24412C30.1149 6.21849 30.6345 4.13318 31.116 4.13318C31.3751 4.13318 31.9471 4.15868 32.5191 4.18418C33.0909 4.20968 33.6627 4.23518 33.9217 4.23518C33.9217 4.23518 33.9705 1.56779 34.0647 0.657124C34.1273 0.0570838 34.4475 -0.0863937 35.1534 0.0602871C35.6644 0.166374 36.0954 0.264628 36.5772 0.469863L36.5935 0.476745C36.7937 0.561416 37.1203 0.699592 37.0981 0.96134C37.0712 1.28405 36.9558 4.33894 36.9558 4.33894C36.9558 4.33894 38.2425 4.43489 38.7047 4.44539C39.2543 4.45714 40.6408 4.53155 40.837 4.61646C41.2698 4.80407 40.8658 6.31995 40.4464 6.34149C39.8399 6.37272 39.3742 6.37344 38.9245 6.37412C38.7543 6.37439 38.5863 6.37464 38.4139 6.37656C38.1702 6.3794 36.9116 6.40094 36.9116 6.40094C36.878 6.84452 36.6794 11.4468 36.6794 14.6793C36.6794 17.1061 37.2345 18.2447 37.8174 18.2447C38.8135 18.2447 40.0313 16.2876 40.307 14.5893C40.3022 13.9914 40.339 13.3514 40.4222 12.6683C40.7103 10.304 41.27 9.23599 41.9614 8.27265C43.0217 6.79521 44.4093 6.43511 45.7465 6.83491C46.2429 6.983 46.9891 7.49406 47.4531 8.22832V7.69877C47.4531 7.46895 47.6933 7.16083 48.0349 7.13538C48.2938 7.11597 48.6311 7.14945 49.0216 7.2404C49.3949 7.32762 50.1971 7.56312 50.2037 8.03039C50.2045 8.09484 50.1988 8.25245 50.1906 8.47916C50.1794 8.78778 50.1636 9.22447 50.1533 9.72853C50.1429 10.2405 50.129 10.6836 50.115 11.1267C50.0875 11.9971 50.06 12.8671 50.06 14.2578C50.06 17.8556 50.5628 18.6428 51.4465 18.6428C52.1377 18.6428 52.7491 17.5359 52.9617 16.4775C52.7646 15.4204 52.738 14.1658 52.8825 12.6893C53.0377 11.105 53.5854 9.4512 54.4217 8.27265C55.4742 6.78952 56.8696 6.43511 58.2068 6.83491C58.7033 6.983 59.4495 7.49406 59.9134 8.22832C59.9134 8.22832 59.9134 8.06855 59.913 7.93153C59.9127 7.84823 59.9123 7.77334 59.9116 7.74789C59.9028 7.39153 60.2427 7.09035 60.8068 7.13449C61.2538 7.16938 61.6847 7.26941 62.0491 7.41395C62.4613 7.57736 62.6594 7.70659 62.6643 8.04818C62.6652 8.11202 62.6595 8.26384 62.6514 8.483C62.6401 8.78697 62.624 9.22049 62.6136 9.72853C62.5952 10.6214 62.5537 13.098 62.5636 16.2449C62.5643 16.466 62.5655 16.6883 62.5671 16.9104C63.0017 16.3138 63.3384 15.7525 63.7785 14.9951C64.6002 13.5814 65.396 11.6262 65.7207 10.1292C65.7207 10.1292 64.7311 9.55284 64.8914 8.33085C64.9925 7.5608 65.2589 7.13254 65.6502 6.7694C66.3057 6.16116 68.3603 6.00666 68.1394 7.91094C68.0973 8.27406 68.0461 8.48001 68.0461 8.48001C68.8955 8.35328 69.8239 8.18827 70.4732 8.03483C71.3849 7.81963 72.019 7.9946 72.3166 8.33708C72.6411 8.71054 72.7705 9.10018 72.6113 9.84441C72.5443 10.1572 72.4785 10.4526 72.4151 10.7369C72.1247 12.0391 71.887 13.1052 71.8451 14.5166C71.7677 17.1312 72.4343 18.6428 73.3539 18.6428C73.9874 18.6428 74.5658 18.0869 74.8774 16.7301C74.6195 15.5277 74.5722 14.106 74.7173 12.7039C74.9158 10.786 75.42 9.4512 76.2565 8.27265C77.309 6.78952 78.7043 6.43494 80.0416 6.83491C80.538 6.983 81.2842 7.49406 81.7482 8.22832C81.7482 8.22832 81.7462 7.89474 81.7462 7.71905C81.7462 7.39171 82.0011 7.1539 82.3613 7.13325C82.6158 7.11865 82.9417 7.15282 83.3167 7.2404C83.69 7.32745 84.4922 7.56294 84.4988 8.0302C84.4996 8.09475 84.4939 8.25242 84.4856 8.47921C84.4745 8.78781 84.4587 9.22437 84.4484 9.72835C84.438 10.2404 84.424 10.6836 84.41 11.1267C84.3825 11.9971 84.3551 12.8671 84.3551 14.2578C84.3551 17.8556 84.772 18.6428 85.6557 18.6428C86.5383 18.6428 87.3499 16.7598 87.6002 15.3728C87.5996 15.2208 87.5995 15.0779 87.5995 14.9467C87.5995 12.2692 87.6557 8.57019 87.6684 7.73574C87.67 7.62965 87.6709 7.56986 87.6709 7.56437C87.6709 7.19323 87.7817 6.93869 88.2341 6.93869C88.6009 6.93869 89.4648 7.15282 89.9033 7.28081C90.0007 7.30947 90.3237 7.46754 90.3216 7.94191C90.3168 9.19933 90.3115 12.5143 90.3115 12.5143C90.3115 12.5143 90.591 11.6832 90.9922 10.4546C91.4858 8.94301 91.9609 7.66778 92.3711 7.19394C92.8446 6.61454 94.1595 7.10155 94.5925 7.37693C95.2599 7.80129 95.388 8.31964 95.3921 8.92859C95.4114 11.7738 95.555 13.2598 95.6381 14.1195C95.6462 14.2029 95.6537 14.2803 95.6604 14.3525C95.6717 14.4761 95.736 14.4652 95.7422 14.4123C95.8621 13.3918 96.3714 10.8793 97.6733 7.7146C98.1325 6.5982 99.0532 6.93497 99.6896 7.16775L99.6961 7.1701C101.176 7.7114 101.328 8.26107 101.298 8.81662C101.155 11.5205 101.137 14.2386 101.249 15.7151C101.392 17.5929 101.947 18.5308 102.566 18.5308C103.119 18.5308 103.548 18.1032 103.956 16.2087ZM80.9086 17.1947C81.3199 16.3634 81.6513 15.1849 81.7206 13.6772C81.8611 10.6155 81.2639 8.95974 79.988 8.83905C78.6945 8.71694 77.9133 10.0708 77.6335 11.8635C77.3587 13.6232 77.3765 15.7294 77.7588 16.9904C78.4603 19.3037 80.1124 18.804 80.9086 17.1947ZM58.9627 28.3713C59.8022 27.7334 60.1937 25.5368 60.211 23.0316C60.2186 21.9413 60.2144 21.481 60.2144 21.481C58.1829 23.4996 56.7962 25.1516 56.503 26.7693C56.1716 28.5974 57.772 29.276 58.9627 28.3713ZM59.0739 17.1947C59.4595 16.4152 59.813 15.0357 59.8858 13.6624C60.0664 10.2551 59.4346 8.83923 58.1533 8.83923C56.8353 8.83923 56.1015 10.393 55.7987 12.0679C55.5654 13.3587 55.4525 15.4074 55.924 16.9904C56.6137 19.3071 58.2779 18.804 59.0739 17.1947ZM46.6136 17.1947C47.0657 16.3116 47.3474 15.0959 47.4255 13.6416C47.5883 10.6155 46.9683 8.96472 45.6929 8.83923C44.4513 8.71694 43.656 10.0075 43.3384 11.8277C43.1244 13.0543 42.9492 15.325 43.4637 16.9904C44.1774 19.2998 45.7956 18.793 46.6136 17.1947Z" fill="white"/>
</svg>
