<svg width="28" height="28" viewBox="0 0 28 28" fill="none" xmlns="http://www.w3.org/2000/svg">
<path fill-rule="evenodd" clip-rule="evenodd" d="M14.0001 9.10024C13.1868 9.10024 12.4545 8.60774 12.1477 7.85448C12.1487 7.85675 12.1481 7.85564 12.1457 7.85135C12.1314 7.82533 12.0528 7.68237 11.861 7.4636C11.6545 7.22811 11.3674 6.96357 11.0098 6.72606C10.3041 6.25738 9.37027 5.91993 8.22463 6.0443C6.55022 6.22607 5.51838 7.01878 4.8789 7.98417C4.19827 9.01169 3.93786 10.2864 4.01218 11.3034C4.09016 12.3704 4.21242 13.1954 4.77794 14.2576C5.37982 15.3882 6.54749 16.8978 8.95047 19.1108C11.2204 21.2013 12.808 22.5615 13.8194 23.381C13.9049 23.4503 13.9674 23.4592 14.0001 23.4592C14.0328 23.4592 14.0953 23.4503 14.1808 23.381C15.1922 22.5615 16.7798 21.2013 19.0497 19.1108C21.4527 16.8978 22.6203 15.3882 23.2222 14.2576C23.7877 13.1954 23.91 12.3704 23.988 11.3034C24.062 10.2907 23.7993 9.01592 23.1155 7.98607C22.4721 7.01728 21.4384 6.22556 19.7747 6.0442C18.8061 5.93862 17.8632 6.25225 17.0697 6.75806C16.6783 7.00753 16.3578 7.28308 16.1291 7.5245C15.9175 7.74789 15.8473 7.87487 15.845 7.87366C15.8446 7.8734 15.8473 7.86712 15.8524 7.85448C15.5457 8.60774 14.8134 9.10024 14.0001 9.10024ZM12.6535 5.4581C13.3698 6.04827 13.8323 6.68817 14.0001 7.10024C14.1647 6.69593 14.6599 6.07718 15.391 5.50031C16.495 4.62934 18.1369 3.85383 19.9914 4.05598C24.5703 4.5551 26.1893 8.62237 25.9827 11.4492C25.8084 13.8341 25.3629 16.0156 20.4046 20.582C18.1132 22.6923 16.4928 24.0818 15.4399 24.9349C14.5773 25.6339 13.4229 25.6339 12.5603 24.9349C11.5074 24.0818 9.88702 22.6923 7.59559 20.582C2.63729 16.0156 2.19179 13.8341 2.0175 11.4492C1.81091 8.62237 3.41107 4.5551 8.00878 4.05598C10.0151 3.83817 11.6059 4.59496 12.6535 5.4581Z" fill="white"/>
</svg>
