<svg width="28" height="28" viewBox="0 0 28 28" fill="none" xmlns="http://www.w3.org/2000/svg">
<path d="M8.8158 15.9494L11.5008 11.2237C11.5716 11.0992 11.7369 11.0675 11.8487 11.1569L14.705 13.442C14.7901 13.5101 14.9109 13.5101 14.9959 13.442L18.102 10.9572C18.2064 10.8736 18.3462 11.0032 18.2709 11.1136L14.9921 15.9226C14.9157 16.0347 14.7601 16.058 14.6542 15.9733L11.795 13.6859C11.7038 13.6129 11.5726 13.6189 11.4883 13.6998L8.99763 16.0908C8.90078 16.1838 8.74947 16.0661 8.8158 15.9494Z" fill="white"/>
<path fill-rule="evenodd" clip-rule="evenodd" d="M3 13.5645C3 16.7071 4.37358 19.5282 6.54628 21.4609L6.32511 23.9889C6.25801 24.7558 7.04624 25.3077 7.74392 24.9824L10.5262 23.685C11.4904 23.9742 12.511 24.1291 13.5645 24.1291C19.3992 24.1291 24.1291 19.3992 24.1291 13.5645C24.1291 7.7299 19.3992 3 13.5645 3C7.7299 3 3 7.7299 3 13.5645ZM10.4045 21.1728C10.6698 21.2831 10.9421 21.3799 11.2205 21.4624C11.9634 21.6826 12.7502 21.8008 13.5645 21.8008C18.1133 21.8008 21.8008 18.1133 21.8008 13.5645C21.8008 9.01578 18.1133 5.32829 13.5645 5.32829C9.01578 5.32829 5.32829 9.01578 5.32829 13.5645C5.32829 15.9992 6.38472 18.1872 8.0642 19.6951C8.35067 19.9522 8.65526 20.1897 8.97583 20.4051L8.88279 21.4686C8.86602 21.6603 9.06307 21.7983 9.23749 21.7169L10.4045 21.1728Z" fill="white"/>
</svg>
