<svg width="28" height="28" viewBox="0 0 28 28" fill="none" xmlns="http://www.w3.org/2000/svg">
<path d="M9.958 21C9.93075 21.1905 9.91665 21.3853 9.91665 21.5833C9.91665 23.8385 11.7448 25.6667 14 25.6667C16.2551 25.6667 18.0833 23.8385 18.0833 21.5833C18.0833 21.3853 18.0692 21.1905 18.042 21H15.6504C15.7149 21.1825 15.75 21.3788 15.75 21.5833C15.75 22.5498 14.9665 23.3333 14 23.3333C13.0335 23.3333 12.25 22.5498 12.25 21.5833C12.25 21.3788 12.2851 21.1825 12.3496 21H9.958Z" fill="white"/>
<path d="M14 22.1667H19.8356C22.0907 22.1667 23.9189 20.3385 23.9189 18.0833C23.9189 16.4277 23.0057 15.517 21.9603 14.4745L21.8471 14.3616C21.839 14.3466 21.8137 14.2973 21.7825 14.1934C21.7304 14.0198 21.6854 13.7735 21.6527 13.4464C21.5868 12.7871 21.5856 11.9756 21.5856 11.0833C21.5856 9.08335 20.9181 7.59922 20.0772 6.75836C19.0769 5.75808 18.1637 5.38254 17.5043 5.18468C17.202 5.09399 17.043 4.89084 16.8188 4.66658C16.0717 3.91956 15.0586 3.49997 14.0022 3.5L14 3.5V5.83526C14.0071 5.83381 14.0077 5.83333 14.0023 5.83333C14.4399 5.83332 14.8595 6.0071 15.1689 6.3165C15.3013 6.44897 15.3736 6.60566 15.4924 6.74976C15.6998 7.00141 15.9493 7.12753 16.0985 7.19132C16.2494 7.2558 16.4055 7.29993 16.5067 7.32806C16.5453 7.33878 16.5804 7.34834 16.6138 7.35746C16.688 7.37768 16.7543 7.39577 16.8337 7.41959C17.216 7.53428 17.7611 7.74207 18.4273 8.40827C18.7531 8.73408 19.2523 9.58328 19.2523 11.0833V11.1207C19.2522 11.9682 19.2522 12.8911 19.331 13.6786C19.3712 14.0807 19.4356 14.4906 19.5476 14.8639C19.6553 15.2231 19.8368 15.6511 20.1773 15.9916C21.4109 17.2252 21.5856 17.4755 21.5856 18.0833C21.5856 19.0498 20.8021 19.8333 19.8356 19.8333H14V22.1667Z" fill="white"/>
<path d="M14.0023 22.1667H8.16666C5.91149 22.1667 4.08331 20.3385 4.08331 18.0833C4.08331 16.4277 4.9965 15.517 6.04193 14.4745L6.15514 14.3616C6.16324 14.3466 6.18857 14.2973 6.21975 14.1934C6.27184 14.0198 6.31681 13.7735 6.34952 13.4464C6.41545 12.7871 6.41665 11.9756 6.41665 11.0833C6.41665 9.08335 7.08416 7.59922 7.92502 6.75836C8.9253 5.75808 9.8385 5.38254 10.498 5.18468C10.8003 5.09399 10.9592 4.89084 11.1835 4.66658C11.9305 3.91956 12.9436 3.49997 14 3.5L14.0022 3.5L14.0023 5.83526C13.9951 5.83381 13.9946 5.83333 13.9999 5.83333C13.5624 5.83332 13.1428 6.0071 12.8334 6.3165C12.7009 6.44897 12.6287 6.60566 12.5099 6.74976C12.3024 7.00141 12.053 7.12753 11.9037 7.19132C11.7528 7.2558 11.5968 7.29993 11.4955 7.32806C11.4569 7.33878 11.4218 7.34834 11.3884 7.35746C11.3143 7.37768 11.2479 7.39577 11.1685 7.41959C10.7863 7.53428 10.2411 7.74207 9.57494 8.40827C9.24913 8.73408 8.74998 9.58328 8.74998 11.0833V11.1207C8.75 11.9682 8.75002 12.8911 8.67127 13.6786C8.63106 14.0807 8.56666 14.4906 8.45468 14.8639C8.34692 15.2231 8.1654 15.6511 7.82494 15.9916C6.59137 17.2252 6.41665 17.4755 6.41665 18.0833C6.41665 19.0498 7.20016 19.8333 8.16666 19.8333H14.0023V22.1667Z" fill="white"/>
</svg>
