<svg width="28" height="28" viewBox="0 0 28 28" fill="none" xmlns="http://www.w3.org/2000/svg">
<path d="M14.8652 8.48975C14.8652 7.93746 14.4175 7.48975 13.8652 7.48975C13.313 7.48975 12.8652 7.93746 12.8652 8.48975V12.9897L8.36523 12.9897C7.81295 12.9897 7.36523 13.4375 7.36523 13.9897C7.36523 14.542 7.81295 14.9897 8.36523 14.9897L12.8652 14.9897V19.4897C12.8652 20.042 13.313 20.4897 13.8652 20.4897C14.4175 20.4897 14.8652 20.042 14.8652 19.4897V14.9897H19.3652C19.9175 14.9897 20.3652 14.542 20.3652 13.9897C20.3652 13.4375 19.9175 12.9897 19.3652 12.9897H14.8652V8.48975Z" fill="#8E8E8E"/>
<path fill-rule="evenodd" clip-rule="evenodd" d="M3 9C3 5.68629 5.68629 3 9 3H19C22.3137 3 25 5.68629 25 9V19C25 22.3137 22.3137 25 19 25H9C5.68629 25 3 22.3137 3 19V9ZM9 5H19C21.2091 5 23 6.79086 23 9V19C23 21.2091 21.2091 23 19 23H9C6.79086 23 5 21.2091 5 19V9C5 6.79086 6.79086 5 9 5Z" fill="#8E8E8E"/>
</svg>
