<svg width="28" height="28" viewBox="0 0 28 28" fill="none" xmlns="http://www.w3.org/2000/svg">
<path d="M10.959 11.1113L11.1845 11.4971L11.8457 11.1113H24V18C24 21.3137 21.3137 24 18 24H9.99997C6.68626 24 3.99997 21.3137 3.99997 18V11.1113H10.959ZM13.5547 12.0156C12.281 11.3198 10.7319 12.1694 10.6045 13.585L10.5966 13.7236L10.4746 18.8955C10.4391 20.407 12.0191 21.3919 13.3466 20.7422L13.4736 20.6748L18.1357 17.9834C19.4449 17.2275 19.4646 15.3653 18.2197 14.5693L18.0947 14.4961L13.5547 12.0156ZM18 4C20.2653 4 22.2377 5.25669 23.2588 7.11133H19.6455L18.6963 5.48438L18.6943 5.48145L18.6904 5.47461L18.6884 5.47168L17.8154 4H18ZM13.165 4L15.0107 7.11133H13.2578L12.4121 5.66211L11.458 4H13.165ZM8.63181 7.11133H4.74118C5.31239 6.07403 6.1814 5.22371 7.23337 4.67578L8.63181 7.11133Z" fill="white" stroke="white" stroke-width="2"/>
</svg>
