<svg width="28" height="28" viewBox="0 0 28 28" fill="none" xmlns="http://www.w3.org/2000/svg">
<path fill-rule="evenodd" clip-rule="evenodd" d="M2.98636 9.22933C0.784018 9.96626 0.704809 13.0522 2.86647 13.9011L10.7442 16.9949C10.8729 17.0454 10.9747 17.1473 11.0252 17.276L14.119 25.1537C14.9679 27.3153 18.0539 27.2361 18.7908 25.0338L25.1562 6.01051C25.8072 4.06516 23.955 2.21297 22.0096 2.8639L2.98636 9.22933ZM3.59351 12.0498C3.16119 11.8801 3.17702 11.2629 3.61749 11.1155L21.1371 5.25319L11.31 15.0803L3.59351 12.0498ZM12.8094 16.3937C12.8335 16.4445 12.8559 16.4963 12.8765 16.5489L15.9703 24.4266C16.1401 24.859 16.7573 24.8431 16.9047 24.4026L22.9917 6.21145L12.8094 16.3937Z" fill="white"/>
</svg>
