<svg width="28" height="28" viewBox="0 0 28 28" fill="none" xmlns="http://www.w3.org/2000/svg">
<path fill-rule="evenodd" clip-rule="evenodd" d="M14 17.7266C16.4853 17.7266 18.5 15.7118 18.5 13.2266C18.5 10.7413 16.4853 8.72656 14 8.72656C11.5147 8.72656 9.5 10.7413 9.5 13.2266C9.5 15.7118 11.5147 17.7266 14 17.7266ZM14 15.7266C15.3807 15.7266 16.5 14.6073 16.5 13.2266C16.5 11.8459 15.3807 10.7266 14 10.7266C12.6193 10.7266 11.5 11.8459 11.5 13.2266C11.5 14.6073 12.6193 15.7266 14 15.7266Z" fill="#8E8E8E"/>
<path fill-rule="evenodd" clip-rule="evenodd" d="M23 25.3047C24.1046 25.3047 25 24.4093 25 23.3047V7.30469C25 6.20012 24.1046 5.30469 23 5.30469H16.9949C16.719 5.30469 16.4553 5.19068 16.2663 4.98965L14.8201 3.45127C14.4319 3.03836 13.7785 3.03024 13.3801 3.4334L11.8249 5.00752C11.637 5.19767 11.3808 5.30469 11.1135 5.30469H5C3.89543 5.30469 3 6.20012 3 7.30469V23.3047C3 24.4093 3.89543 25.3047 5 25.3047H23ZM23 23.3047V7.30469H16.9949C16.1671 7.30469 15.3761 6.96266 14.8092 6.35956L14.0736 5.57715L13.2476 6.41319C12.684 6.98364 11.9154 7.30469 11.1135 7.30469L5 7.30469L5 23.3047L6.72489 23.3047C6.85515 20.6594 9.04116 18.5547 11.7188 18.5547H16.625C19.3026 18.5547 21.4886 20.6594 21.6189 23.3047L23 23.3047ZM19.6147 23.3047C19.4877 21.7648 18.1977 20.5547 16.625 20.5547H11.7188C10.1461 20.5547 8.85606 21.7648 8.72902 23.3047H19.6147Z" fill="#8E8E8E"/>
</svg>
